<svg xmlns="http://www.w3.org/2000/svg" xml:space="preserve" width="1000" height="1000"><path d="M0 0h1000v1000H0z" style="fill:#cc342d;stroke-width:5.85936"/><path d="M151.317 827.333H107.5v135.274h43.817zm39.112 45.875 19.115-37.935q-3.53-5.294-10.293-8.234-6.764-2.941-14.116-2.941-11.174 0-21.467 7.352t-16.762 19.997q-6.176 12.645-6.176 28.82l10.587 15.585q0-9.704 2.646-16.468t7.646-10.293 11.47-3.529q5.88 0 9.704 2.059 4.117 2.059 7.646 5.587m84.4 36.466v-82.341h-46.465v87.046q0 24.114 11.47 37.936 11.762 13.527 37.053 13.527 14.997 0 24.996-6.176 9.999-6.47 16.174-17.35v20.291h44.405V827.333h-44.405v82.34q0 7.94-2.94 13.528t-8.235 8.528q-4.999 2.941-12.35 2.941-10.882 0-15.293-6.47-4.41-6.763-4.41-18.526m122.629-176.445v229.378h44.699V733.23Zm148.214 232.319q25.878 0 43.817-9.999 18.232-9.998 28.82-29.995l-39.701-9.705q-5 8.823-13.527 13.234-8.235 4.41-19.998 4.41-10.292 0-17.35-4.41-7.058-4.706-10.587-13.528t-3.529-21.173q.294-13.528 3.53-22.35 3.528-9.116 10.292-13.527t16.762-4.411q7.94 0 13.822 3.528 5.881 3.53 9.116 9.999t3.235 15.292q0 2.058-1.176 5.293-.883 2.941-2.353 5l10.587-13.528h-83.518v24.702h123.512q.588-2.058.588-4.999v-6.47q0-21.761-8.528-37.053t-24.702-23.232q-16.175-8.234-39.7-8.234-23.527 0-40.877 8.528-17.056 8.528-26.173 24.408t-9.116 37.642q0 21.467 9.41 37.348t26.467 24.702q17.35 8.528 40.877 8.528m146.155-55.874v-82.341h-46.464v87.046q0 24.114 11.469 37.936 11.763 13.527 37.053 13.527 14.998 0 24.997-6.176 9.998-6.47 16.174-17.35v20.291h44.405V827.333h-44.405v82.34q0 7.94-2.94 13.528-2.942 5.588-8.235 8.528-5 2.941-12.351 2.941-10.88 0-15.292-6.47-4.411-6.763-4.411-18.526m166.446-82.341h-43.817v135.274h43.817zm39.112 45.875 19.115-37.935q-3.529-5.294-10.292-8.234-6.764-2.941-14.116-2.941-11.175 0-21.467 7.352-10.293 7.352-16.763 19.997-6.175 12.645-6.175 28.82l10.586 15.585q0-9.704 2.647-16.468t7.646-10.293 11.469-3.529q5.882 0 9.704 2.059 4.118 2.059 7.646 5.587" aria-label="ruleur" style="font-weight:700;font-size:294.075px;font-family:Jost;-inkscape-font-specification:&quot;Jost Bold&quot;;fill:#fff;stroke-width:24.5063"/><path d="M144.372 91.26v566.93L505.87 834.767v-566.93Zm742.484 181.337H525.358v566.93h361.498zM192.8 164.048l54.565 26.653 21.146 50.96-48.427 47.21-48.428-94.52zm645.63 157.683 21.144 40.63-48.427 70.866-48.428-70.866 21.146-40.63zM297.838 215.356l54.566 26.653 21.144 50.96-48.427 47.209-48.428-94.521zM733.39 321.731l21.144 40.63-48.428 70.865-48.427-70.864 21.144-40.631zm-330.513-55.066 54.564 26.652 21.145 50.957-48.426 47.212-48.427-94.52zm225.472 55.067 21.145 40.629-48.428 70.866-48.425-70.867 21.144-40.628zm-435.55-34.85 54.564 26.655 21.146 50.957-48.427 47.212-48.428-94.52zm645.629 157.683 21.144 40.63-48.427 70.866-48.428-70.866 21.147-40.629zM297.838 338.19l54.566 26.653 21.144 50.96-48.427 47.21-48.428-94.52zM733.39 444.565l21.144 40.631-48.428 70.866-48.427-70.866 21.144-40.631zm-330.513-55.067 54.564 26.653 21.145 50.959-48.426 47.212-48.427-94.523zm225.472 55.068 21.145 40.629-48.428 70.867-48.425-70.866 21.144-40.63zM192.8 409.718l54.564 26.653 21.146 50.96-48.427 47.209-48.428-94.52zm645.629 157.683 21.144 40.628-48.427 70.866-48.428-70.864 21.147-40.63zM297.838 461.026l54.566 26.653 21.144 50.957-48.427 47.212-48.428-94.521zM733.39 567.401l21.144 40.63-48.428 70.865-48.427-70.866 21.144-40.63zm-330.513-55.069 54.564 26.653 21.145 50.959-48.426 47.212-48.427-94.52zM628.35 567.4l21.145 40.63-48.428 70.866-48.425-70.866 21.144-40.63zM192.8 532.552l54.564 26.653 21.146 50.96-48.427 47.21-48.428-94.52zm645.629 157.683 21.144 40.63-48.427 70.866-48.428-70.866 21.147-40.63zM297.838 583.86l54.566 26.653 21.144 50.959-48.427 47.21-48.428-94.521zM733.39 690.235l21.144 40.63-48.428 70.865-48.427-70.864 21.144-40.631zm-330.513-55.067 54.564 26.653 21.145 50.957-48.426 47.212-48.427-94.52zm225.472 55.068 21.145 40.629-48.428 70.865-48.425-70.866 21.144-40.629z" style="fill:#fff;stroke-width:6.0786" transform="scale(.96972 1)skewY(-13.725)"/></svg>
